<mxfile host="app.diagrams.net" agent="Mozilla/5.0 (Windows NT 10.0; Win64; x64) AppleWebKit/537.36 (KHTML, like Gecko) Chrome/128.0.0.0 Safari/537.36" version="24.7.12">
  <diagram name="Halaman-1" id="1uSDZwQizMFpz8-QRmVu">
    <mxGraphModel dx="1434" dy="720" grid="1" gridSize="10" guides="1" tooltips="1" connect="1" arrows="1" fold="1" page="1" pageScale="1" pageWidth="827" pageHeight="1169" math="0" shadow="0">
      <root>
        <mxCell id="0" />
        <mxCell id="1" parent="0" />
        <mxCell id="XCdhvRJcBNIJ84LPgZHh-1" value="" style="rounded=0;whiteSpace=wrap;html=1;" vertex="1" parent="1">
          <mxGeometry x="255" y="150" width="320" height="555" as="geometry" />
        </mxCell>
        <mxCell id="XCdhvRJcBNIJ84LPgZHh-3" value="sekretaris" style="shape=umlActor;verticalLabelPosition=bottom;verticalAlign=top;html=1;outlineConnect=0;" vertex="1" parent="1">
          <mxGeometry x="140" y="382.5" width="70" height="110" as="geometry" />
        </mxCell>
        <mxCell id="XCdhvRJcBNIJ84LPgZHh-4" value="guru" style="shape=umlActor;verticalLabelPosition=bottom;verticalAlign=top;html=1;outlineConnect=0;" vertex="1" parent="1">
          <mxGeometry x="610" y="382.5" width="70" height="110" as="geometry" />
        </mxCell>
        <mxCell id="XCdhvRJcBNIJ84LPgZHh-5" value="PRESENSI DIGITAL" style="text;html=1;align=center;verticalAlign=middle;whiteSpace=wrap;rounded=0;" vertex="1" parent="1">
          <mxGeometry x="350" y="170" width="130" height="30" as="geometry" />
        </mxCell>
        <mxCell id="XCdhvRJcBNIJ84LPgZHh-6" value="Form login" style="ellipse;whiteSpace=wrap;html=1;" vertex="1" parent="1">
          <mxGeometry x="342.5" y="220" width="145" height="80" as="geometry" />
        </mxCell>
        <mxCell id="XCdhvRJcBNIJ84LPgZHh-7" value="Isi kehadiran" style="ellipse;whiteSpace=wrap;html=1;" vertex="1" parent="1">
          <mxGeometry x="342.5" y="330" width="145" height="80" as="geometry" />
        </mxCell>
        <mxCell id="XCdhvRJcBNIJ84LPgZHh-8" value="Riwayat kehadiran" style="ellipse;whiteSpace=wrap;html=1;" vertex="1" parent="1">
          <mxGeometry x="342.5" y="440" width="145" height="80" as="geometry" />
        </mxCell>
        <mxCell id="XCdhvRJcBNIJ84LPgZHh-9" value="Laporan kehadiran siswa&amp;nbsp;" style="ellipse;whiteSpace=wrap;html=1;" vertex="1" parent="1">
          <mxGeometry x="342.5" y="560" width="145" height="80" as="geometry" />
        </mxCell>
        <mxCell id="XCdhvRJcBNIJ84LPgZHh-10" value="" style="endArrow=none;html=1;rounded=0;exitX=1;exitY=0.3333333333333333;exitDx=0;exitDy=0;exitPerimeter=0;entryX=0.017;entryY=0.6;entryDx=0;entryDy=0;entryPerimeter=0;" edge="1" parent="1" source="XCdhvRJcBNIJ84LPgZHh-3" target="XCdhvRJcBNIJ84LPgZHh-6">
          <mxGeometry width="50" height="50" relative="1" as="geometry">
            <mxPoint x="390" y="500" as="sourcePoint" />
            <mxPoint x="440" y="450" as="targetPoint" />
          </mxGeometry>
        </mxCell>
        <mxCell id="XCdhvRJcBNIJ84LPgZHh-11" value="" style="endArrow=none;html=1;rounded=0;entryX=0;entryY=0.5;entryDx=0;entryDy=0;" edge="1" parent="1" target="XCdhvRJcBNIJ84LPgZHh-7">
          <mxGeometry width="50" height="50" relative="1" as="geometry">
            <mxPoint x="210" y="420" as="sourcePoint" />
            <mxPoint x="355" y="278" as="targetPoint" />
          </mxGeometry>
        </mxCell>
        <mxCell id="XCdhvRJcBNIJ84LPgZHh-12" value="" style="endArrow=none;html=1;rounded=0;exitX=1;exitY=0.3333333333333333;exitDx=0;exitDy=0;exitPerimeter=0;entryX=0;entryY=0.5;entryDx=0;entryDy=0;" edge="1" parent="1" source="XCdhvRJcBNIJ84LPgZHh-3" target="XCdhvRJcBNIJ84LPgZHh-8">
          <mxGeometry width="50" height="50" relative="1" as="geometry">
            <mxPoint x="230" y="439" as="sourcePoint" />
            <mxPoint x="365" y="288" as="targetPoint" />
          </mxGeometry>
        </mxCell>
        <mxCell id="XCdhvRJcBNIJ84LPgZHh-13" value="" style="endArrow=none;html=1;rounded=0;exitX=0.976;exitY=0.338;exitDx=0;exitDy=0;exitPerimeter=0;entryX=0;entryY=0.3333333333333333;entryDx=0;entryDy=0;entryPerimeter=0;" edge="1" parent="1" source="XCdhvRJcBNIJ84LPgZHh-9" target="XCdhvRJcBNIJ84LPgZHh-4">
          <mxGeometry width="50" height="50" relative="1" as="geometry">
            <mxPoint x="240" y="449" as="sourcePoint" />
            <mxPoint x="375" y="298" as="targetPoint" />
          </mxGeometry>
        </mxCell>
      </root>
    </mxGraphModel>
  </diagram>
</mxfile>
